<svg xmlns="http://www.w3.org/2000/svg" xmlns:xlink="http://www.w3.org/1999/xlink" version="1.1" x="0px" y="0px" viewBox="0 0 100 100" enable-background="new 0 0 100 100" xml:space="preserve"><path d="M5.677,85.147l10.134,6.778c0.253,0.17,0.548,0.257,0.848,0.257c0.099,0,0.2-0.009,0.298-0.03  c0.396-0.077,0.744-0.311,0.971-0.647l34.379-51.398c9.023,6.163,17.702,13.138,25.544,20.743c0.119,0.116,0.276,0.19,0.443,0.209  l3.428,0.39c0.03,0.003,0.057,0.004,0.087,0.004c0.253,0,0.494-0.126,0.634-0.341c0.161-0.238,0.17-0.546,0.029-0.794  c-6.547-11.623-14.406-21.556-23.659-29.941l3.887-5.811c0.467-0.7,0.279-1.646-0.42-2.113l-10.133-6.778  c-0.337-0.228-0.75-0.317-1.146-0.228c-0.396,0.077-0.744,0.311-0.97,0.647l-3.224,4.817c-7.479-5.114-15.692-9.464-24.719-13.044  c-0.315-0.126-0.711-0.013-0.914,0.284L13.831,19.13c-0.131,0.197-0.163,0.44-0.089,0.664c0.074,0.224,0.247,0.4,0.47,0.479  c8.313,2.945,16.818,6.922,25.195,11.703L5.257,83.034C4.79,83.733,4.978,84.68,5.677,85.147z"></path><path d="M57.781,69.953c-0.758-0.458-1.742-0.336-2.368,0.301L37.069,88.898c-0.547,0.554-0.706,1.381-0.403,2.101  c0.302,0.716,1.002,1.184,1.779,1.184h54.549c0.022,0,0.053-0.002,0.075,0c1.067,0,1.931-0.863,1.931-1.931  c0-0.315-0.072-0.611-0.207-0.873l-4.247-22.473c-0.116-0.617-0.523-1.139-1.098-1.399c-0.569-0.26-1.232-0.228-1.775,0.091  L68.868,76.605L57.781,69.953z"></path></svg>